<svg xmlns="http://www.w3.org/2000/svg" style="display: none;">
  
    <symbol id="icon-external-link" viewBox="0 0 512 512">
      <path d="m402 265l0 92c0 22-8 42-24 58-16 16-35 24-58 24l-238 0c-22 0-42-8-58-24-16-16-24-36-24-58l0-238c0-23 8-42 24-58 16-16 36-24 58-24l201 0c3 0 5 0 7 2 2 2 3 4 3 7l0 18c0 3-1 5-3 7-2 1-4 2-7 2l-201 0c-12 0-23 5-32 14-9 9-13 19-13 32l0 238c0 12 4 23 13 32 9 9 20 13 32 13l238 0c13 0 23-4 32-13 9-9 14-20 14-32l0-92c0-3 1-5 2-6 2-2 4-3 7-3l18 0c3 0 5 1 7 3 1 1 2 3 2 6z m110-247l0 147c0 5-2 9-5 12-4 4-8 6-13 6-5 0-10-2-13-6l-50-50-187 186c-2 2-4 3-6 3-3 0-5-1-7-3l-32-32c-2-2-3-4-3-7 0-2 1-4 3-6l186-187-50-50c-4-3-6-8-6-13 0-5 2-9 6-13 3-3 7-5 12-5l147 0c5 0 9 2 13 5 3 4 5 8 5 13z"/>
    </symbol>
  
    <symbol id="icon-twitter" viewBox="0 0 512 512">
      <path d="m481 117c-13 18-28 34-46 47 0 3 0 7 0 12 0 25-3 50-11 74-7 25-18 49-33 71-14 23-32 43-52 61-21 17-45 31-74 41-29 11-60 16-92 16-52 0-99-14-142-42 7 1 14 2 22 2 43 0 81-14 115-40-20 0-38-6-54-18-16-12-27-27-33-46 7 1 13 2 18 2 8 0 16-1 24-4-21-4-39-15-53-31-14-17-21-37-21-59l0-1c13 7 27 11 42 11-13-8-23-19-30-32-8-14-11-29-11-44 0-17 4-33 12-47 23 28 51 51 84 68 33 17 69 27 107 29-2-8-3-15-3-22 0-25 9-47 27-65 18-18 40-27 66-27 26 0 49 10 67 29 21-4 40-11 59-22-7 22-21 39-41 51 18-2 35-7 53-14z"/>
    </symbol>
  
    <symbol id="icon-arrow-left" viewBox="0 0 512 512">
      <path d="m475 256l0 37c0 10-3 18-9 25-6 8-14 11-24 11l-201 0 84 84c7 7 10 16 10 26 0 10-3 19-10 26l-22 21c-7 7-15 11-26 11-9 0-18-4-26-11l-186-186c-7-7-10-16-10-26 0-10 3-18 10-26l186-185c8-8 16-11 26-11 10 0 19 3 26 11l22 21c7 7 10 16 10 26 0 10-3 18-10 26l-84 83 201 0c10 0 18 4 24 11 6 7 9 16 9 26z"/>
    </symbol>
  
    <symbol id="icon-arrow-right" viewBox="0 0 512 512">
      <path d="m457 274c0 11-3 19-10 26l-186 186c-8 7-17 11-26 11-10 0-19-4-26-11l-22-21c-7-7-10-16-10-26 0-10 3-19 10-26l84-84-201 0c-10 0-18-3-24-11-6-7-9-15-9-25l0-37c0-10 3-19 9-26 6-7 14-11 24-11l201 0-84-84c-7-6-10-15-10-25 0-11 3-19 10-26l22-21c7-8 16-11 26-11 10 0 18 3 26 11l186 186c7 6 10 15 10 25z"/>
    </symbol>
  
    <symbol id="icon-rss" viewBox="0 0 512 512">
      <path d="m165 384c0 15-6 28-16 39-11 11-24 16-39 16-16 0-28-5-39-16-11-11-16-24-16-39 0-15 5-28 16-39 11-11 23-16 39-16 15 0 28 5 39 16 10 11 16 24 16 39z m146 35c0 5-1 10-5 14-3 4-8 6-13 6l-39 0c-5 0-9-2-12-5-4-3-6-7-6-12-4-43-22-81-53-112-31-31-68-48-112-52-4-1-8-3-11-6-4-3-5-8-5-12l0-39c0-5 2-10 6-13 3-4 7-5 12-5l2 0c30 2 59 10 87 23 28 13 52 30 74 52 22 21 39 46 52 74 13 28 20 57 23 87z m146 1c1 5-1 9-5 13-3 4-8 6-13 6l-41 0c-5 0-9-2-13-5-3-3-5-8-5-12-3-41-12-80-29-117-17-37-39-69-66-96-27-27-59-49-96-66-37-17-76-27-117-29-5 0-9-2-12-6-3-3-5-8-5-12l0-41c0-5 2-10 6-13 3-4 7-5 12-5l1 0c50 2 98 13 143 34 46 20 86 48 122 84 35 35 63 76 84 121 20 46 32 94 34 144z"/>
    </symbol>
  
    <symbol id="icon-instagram" viewBox="0 0 512 512">
      <path d="m329 256c0-20-7-37-21-52-15-14-32-21-52-21-20 0-37 7-52 21-14 15-21 32-21 52 0 20 7 37 21 52 15 14 32 21 52 21 20 0 37-7 52-21 14-15 21-32 21-52z m40 0c0 31-11 58-33 80-22 22-49 33-80 33-31 0-58-11-80-33-22-22-33-49-33-80 0-31 11-58 33-80 22-22 49-33 80-33 31 0 58 11 80 33 22 22 33 49 33 80z m30-117c0 7-2 13-7 18-5 6-12 8-19 8-7 0-13-2-18-8-6-5-8-11-8-18 0-7 2-14 8-19 5-5 11-7 18-7 7 0 14 2 19 7 5 5 7 12 7 19z m-143-63c-1 0-9 0-22 0-13 0-23 0-30 0-7 0-16 0-28 1-11 0-21 1-29 3-8 1-15 3-20 5-10 4-18 9-26 16-7 8-12 16-16 26-2 5-4 12-5 20-2 8-3 18-3 29-1 12-1 21-1 28 0 7 0 17 0 30 0 13 0 21 0 22 0 1 0 9 0 22 0 13 0 23 0 30 0 7 0 16 1 28 0 11 1 21 3 29 1 8 3 15 5 20 4 10 9 18 16 26 8 7 16 12 26 16 5 2 12 4 20 5 8 2 18 3 29 3 12 1 21 1 28 1 7 0 17 0 30 0 13 0 21 0 22 0 1 0 9 0 22 0 13 0 23 0 30 0 7 0 16 0 28-1 11 0 21-1 29-3 8-1 15-3 20-5 10-4 18-9 26-16 7-8 12-16 16-26 2-5 4-12 5-20 2-8 3-18 3-29 1-12 1-21 1-28 0-7 0-17 0-30 0-13 0-21 0-22 0-1 0-9 0-22 0-13 0-23 0-30 0-7 0-16-1-28 0-11-1-21-3-29-1-8-3-15-5-20-4-10-9-18-16-26-8-7-16-12-26-16-5-2-12-4-20-5-8-2-18-3-29-3-12-1-21-1-28-1-7 0-17 0-30 0-13 0-21 0-22 0z m219 180c0 44 0 74-1 91-2 39-14 70-35 92-22 21-53 33-92 35-17 1-47 1-91 1-44 0-74 0-91-1-39-2-70-14-92-35-21-22-33-53-35-92-1-17-1-47-1-91 0-44 0-74 1-91 2-39 14-70 35-92 22-21 53-33 92-35 17-1 47-1 91-1 44 0 74 0 91 1 39 2 70 14 92 35 21 22 33 53 35 92 1 17 1 47 1 91z"/>
    </symbol>
  
    <symbol id="icon-github" viewBox="0 0 512 512">
      <path d="m256 37c40 0 77 9 110 29 34 20 60 46 80 80 20 33 29 70 29 110 0 48-14 91-41 129-28 38-64 65-109 79-5 1-9 1-11-2-2-2-4-5-4-8 0-1 0-8 0-22 1-14 1-27 1-39 0-18-5-32-15-40 11-1 20-3 29-5 9-3 18-6 27-11 9-6 17-12 23-19 6-8 11-18 15-30 4-13 6-27 6-43 0-23-8-43-23-59 7-18 7-37-2-59-5-1-13 0-23 4-10 3-19 8-26 12l-11 7c-18-5-36-7-55-7-19 0-37 2-55 7-3-2-7-5-12-8-5-3-13-6-24-11-11-4-19-5-24-4-9 22-9 41-2 59-15 16-23 36-23 59 0 16 2 30 6 42 4 13 9 23 15 30 6 8 14 14 23 20 9 5 18 8 27 11 8 2 18 4 29 5-7 7-12 17-14 29-4 2-8 4-13 5-4 1-10 1-16 1-6 0-13-2-19-6-6-4-11-10-16-18-3-6-8-11-14-15-5-4-10-6-14-7l-5-1c-4 0-7 1-9 2-1 1-2 2-1 3 0 1 1 3 2 4 2 1 3 2 4 3l2 2c4 2 8 5 13 11 4 5 7 10 9 14l2 7c3 7 7 13 13 17 6 5 12 8 19 9 7 1 14 2 20 2 6 0 12 0 16-1l6-1c0 7 0 16 1 25 0 10 0 15 0 16 0 3-2 6-4 8-2 3-6 3-11 2-45-14-81-41-109-79-27-38-41-81-41-129 0-40 9-77 29-110 20-34 46-60 80-80 33-20 70-29 110-29z m-136 315c0-2 0-3-2-4-2 0-3 0-4 1-1 1 0 2 2 3 2 1 3 1 4 0z m9 9c1-1 1-2-1-4-2-2-3-2-5-1-1 1-1 2 1 5 2 1 3 2 5 0z m8 13c2-1 2-3 0-5-1-3-3-3-5-2-1 1-1 3 0 5 2 3 4 3 5 2z m12 12c2-1 1-3-1-5-2-2-4-3-6-1-1 2-1 3 1 5 3 3 5 3 6 1z m16 7c1-2 0-3-3-4-3-1-5 0-6 2 0 2 1 3 4 4 3 1 5 1 5-2z m18 2c0-3-1-4-4-3-3 0-5 1-5 3 0 2 2 3 5 3 3 0 4-1 4-3z m17-3c0-2-2-3-5-3-3 1-5 2-4 5 0 2 2 3 5 2 3-1 4-2 4-4z"/>
    </symbol>
  
    <symbol id="icon-bookmark" viewBox="0 0 512 512">
      <path d="m406 37c4 0 8 0 12 2 7 3 12 7 15 12 4 5 6 11 6 18l0 368c0 6-2 12-6 18-3 5-8 9-15 11-3 2-8 3-12 3-9 0-17-3-24-10l-126-121-126 121c-7 7-15 10-24 10-4 0-8-1-12-3-7-2-12-6-15-11-4-6-6-12-6-18l0-368c0-7 2-13 6-18 3-5 8-9 15-12 4-2 8-2 12-2z"/>
    </symbol>
  
</svg>
